<svg xmlns="http://www.w3.org/2000/svg" width="124" height="124" fill="none"><path stroke="#595959" stroke-linecap="round" stroke-linejoin="round" stroke-width="1.755" d="m42.698 96.245-11.31 6.16 16.97 9.899 16.971-9.665-7.791-4.353"/><path stroke="#595959" stroke-linecap="round" stroke-linejoin="round" stroke-width="1.755" d="M42.697 78.525v23.831l5.847 3.382 5.487-3.382v-10.23m-5.611-8.83.124 22.442m28.54-22.786 11.173 6.505 16.97-9.653-7.779-4.353"/><path stroke="#595959" stroke-linecap="round" stroke-linejoin="round" stroke-width="1.755" d="m83.066 79.792 5.364 3.111 5.5-3.394v-6.615m-5.536 3.295.037 6.714M13.328 54.055l.979 12.469 19.732 12.678 7.333-1.783m78.225-19.872L60.151 93.06m48.619-44.698-59.792 35.39M97.93 39.164 37.793 74.443m49.3-44.464L26.619 65.133M76.266 20.78l-60.82 35.034m49.982-44.219L4.273 46.505m0 0L60.151 93.06M16.499 39.521l55.543 46.444M28.737 32.548l55.197 46.31M40.963 25.564 95.825 71.75M53.202 18.58l54.503 46.075m-42.277-53.06 54.168 45.953"/></svg>