<svg xmlns="http://www.w3.org/2000/svg" width="125" height="125" fill="none"><path stroke="#595959" stroke-linecap="round" stroke-linejoin="round" stroke-width="1.755" d="M69.125 31.913a49.701 49.701 0 0 1 2.183-2.366m5.777-4.893c.874-.619 1.76-1.238 2.67-1.709 6.663-3.815 12.678-4.1 16.97-1.486 4.292 2.613 6.663 7.717 6.663 15.037a36.048 36.048 0 0 1-.387 4.955c4.592-2.626 8.734-2.836 11.716-1.028 2.982 1.809 4.604 5.327 4.604 10.393 0 10.33-7.311 22.891-16.32 28.056l-62.674 35.923c-4.716 2.7-8.971 2.911-12.016 1.053-3.044-1.858-4.716-5.463-4.716-10.641 0-10.603 7.486-23.535 16.732-28.775a19.65 19.65 0 0 1 3.007-1.4v-.52c0-7.58 5.353-16.797 11.978-20.587a13.887 13.887 0 0 1 2.496-1.127 53.604 53.604 0 0 1 4.779-11.421m52.13-.929-7.561-4.608"/><path stroke="#595959" stroke-linecap="round" stroke-linejoin="round" stroke-width="1.755" d="M99.296 49.552a34.748 34.748 0 0 1-1.16 2.837m-3.744 6.453a35.257 35.257 0 0 1-4.804 5.475m-6.625 4.596-15.31 8.832m-6.264 3.53-5.89 3.382m-6.113 3.506-9.895 5.685m-6.189 3.53-1.809 1.028m-3.182 17.466L10.17 104.798c-2.92-1.771-4.716-5.45-4.716-10.64 0-10.591 7.486-23.535 16.732-28.775a18.48 18.48 0 0 1 3.007-1.387v-.533c0-7.58 5.353-16.797 11.966-20.587a13.422 13.422 0 0 1 2.495-1.115c3.431-12.065 11.979-24.13 21.998-29.878 6.613-3.827 12.64-4.112 16.957-1.486L96.75 21.459"/><path stroke="#595959" stroke-linecap="round" stroke-linejoin="round" stroke-width="1.755" d="m23.258 103.139-1.073.607c-.362.21-.724.408-1.098.594m22.247-29.283-14.898-9.092m29.31-13.143-14.537-8.856"/></svg>